<svg width="400" height="400" viewBox="0 0 200 200" xmlns="http://www.w3.org/2000/svg" fill="none">
  <defs>
    <filter id="glow" x="-60%" y="-60%" width="220%" height="220%" color-interpolation-filters="sRGB">
      <feDropShadow dx="0" dy="0" stdDeviation="4" flood-color="#00CFFF" flood-opacity="0.8"/>
      <feDropShadow dx="0" dy="0" stdDeviation="8" flood-color="#0077B6" flood-opacity="0.5"/>
    </filter>
    <linearGradient id="grad" x1="0" y1="0" x2="1" y2="1">
      <stop offset="0%" stop-color="#00CFFF"/>
      <stop offset="100%" stop-color="#0077B6"/>
    </linearGradient>
    <radialGradient id="nodeGlow" cx="50%" cy="50%" r="60%">
      <stop offset="0%" stop-color="#00E5FF" stop-opacity="0.9"/>
      <stop offset="100%" stop-color="#004F7C" stop-opacity="0"/>
    </radialGradient>
  </defs>

  <!-- Nodes with a soft glowing fill and stroke -->
  <g filter="url(#glow)" stroke="url(#grad)" stroke-width="3" fill="url(#nodeGlow)" stroke-linejoin="round" stroke-linecap="round">
    <circle cx="50" cy="50" r="18" />
    <circle cx="150" cy="50" r="18" />
    <circle cx="100" cy="110" r="18" />
    <circle cx="70" cy="155" r="18" />
    <circle cx="130" cy="155" r="18" />
  </g>

  <!-- Connections with smooth curves for dynamic look -->
  <g stroke="url(#grad)" stroke-width="2.5" fill="none" filter="url(#glow)" stroke-linecap="round">
    <path d="M50 50 Q100 20 150 50" />
    <path d="M50 50 Q75 80 100 110" />
    <path d="M150 50 Q125 80 100 110" />
    <path d="M70 155 Q85 130 100 110" />
    <path d="M130 155 Q115 130 100 110" />
    <path d="M70 155 Q100 180 130 155" />
  </g>

  <!-- Stylish code brackets on sides with glow -->
  <g stroke="url(#grad)" stroke-width="3" fill="none" filter="url(#glow)" stroke-linecap="round">
    <path d="M28 75 L15 90 L28 105" />
    <path d="M172 75 L185 90 L172 105" />
  </g>
</svg>
